<?xml version="1.0" encoding="UTF-8"?>
<svg width="1536px" height="1536px" viewBox="0 0 1536 1536" version="1.1" xmlns="http://www.w3.org/2000/svg"
     xmlns:xlink="http://www.w3.org/1999/xlink">
  <!-- Generator: Sketch 3.6.1 (26313) - http://www.bohemiancoding.com/sketch -->
  <title>hziconios@1.5x</title>
  <desc>Created with Sketch.</desc>
  <defs></defs>
  <g id="Page-1" stroke="none" stroke-width="1" fill="none" fill-rule="evenodd">
    <g id="hziconios">
      <g id="hz" transform="translate(4.000000, 109.000000)">
        <path
          d="M768,1318.20896 C1116.18668,1318.20896 1398.44776,1035.94788 1398.44776,687.761194 C1398.44776,339.57451 1116.18668,57.3134328 768,57.3134328 C419.813316,57.3134328 137.552239,339.57451 137.552239,687.761194 C137.552239,1035.94788 419.813316,1318.20896 768,1318.20896 Z"
          id="Oval-43" fill="#FFDD51"></path>
        <path
          d="M1226.48805,462.191457 C1185.47537,462.191457 1061.51381,459.812047 990.460058,462.191457 C948.111034,463.609619 945.49205,481.003464 932.67832,462.191457 C923.644504,448.928793 840.37619,340.462664 863.858023,307.345788 C882.523393,281.021662 888.871582,233.50043 932.67832,233.019872 C943.672445,232.899267 972.551673,224.857125 990.460058,233.019872 C1018.73181,245.906302 1035.90877,276.653826 1035.90877,271.215132 C1035.90877,165.741819 1121.23402,80.238806 1226.48805,80.238806 C1318.71059,80.238806 1395.63362,145.88024 1413.26762,233.081937 C1414.52913,233.040664 1415.79581,233.019866 1417.06734,233.019866 C1480.21976,233.019866 1531.41491,284.321674 1531.41491,347.605662 C1531.41491,410.889649 1480.21976,462.191457 1417.06734,462.191457 L1226.48805,462.191457 Z"
          id="Oval-43" fill="#9CD7F8"></path>
        <path
          d="M255.706085,512.477612 C114.483514,512.477612 0,397.755591 0,256.238806 C0,114.722021 114.483514,0 255.706085,0 C379.443897,0 482.653894,88.0731291 506.313977,205.074326 C508.006585,205.018949 509.706125,204.991045 511.41217,204.991045 C596.145713,204.991045 664.835821,273.824257 664.835821,358.734328 C664.835821,443.644399 596.145713,512.477612 511.41217,512.477612 L255.706085,512.477612 Z"
          id="Oval-43" fill="#89D4FD"></path>
        <g id="house-154098" transform="translate(378.268657, 183.402985)">
          <g id="Group" transform="translate(-0.000000, 0.000000)">
            <path
              d="M32.8077419,317.517207 L363.670682,0.594053301 L502.956854,119.345629 L557.025641,165.443175 L595.678788,198.397777 L719.635454,304.079846 L642.39781,305.760465 L639.039627,852.377259 L115.166934,859.084213 L118.52515,319.174407 L32.8077419,317.517207 Z"
              id="Shape" fill="#C09C61"></path>
            <path
              d="M361.873474,571.316777 L360.143785,852.12125 L382.056182,847.942669 L383.752128,567.138197 L361.873474,571.316777 Z"
              id="Shape" fill="#EFB24C"></path>
            <path
              d="M31.2130239,583.405441 L34.5711736,858.744529 L54.7538814,855.398881 L53.0579352,584.002204 L31.2130239,583.405441 Z"
              id="Shape" fill="#EFB24C"></path>
            <path
              d="M184.857576,616.94078 L185.747752,848.958341 L310.413016,847.285517 L316.289803,618.123634 L184.857576,616.94078 Z"
              id="Shape" fill-opacity="0.320000023" fill="#4990E2"></path>
            <path
              d="M689.344521,580.554681 L687.682318,849.405487 L706.202822,855.398881 L709.560972,583.202427 L689.344521,580.554681 Z"
              id="Shape" fill="#EFB24C"></path>
            <path
              d="M31.2130239,848.707584 L31.2130239,912.920276 L709.560972,909.54067 L709.560972,848.707584 L31.2130239,848.707584 Z"
              id="Shape" fill="#C6838B"></path>
            <path
              d="M413.469634,623.632043 L413.469634,760.803621 L614.59626,759.130797 L616.258463,618.613571 L413.469634,623.632043 Z"
              id="Shape" fill="#FFF6D1"></path>
            <path
              d="M214.005212,242.228144 L220.654026,396.127963 L327.035051,396.127963 L332.021662,238.882496 L214.005212,242.228144 Z"
              id="Shape" fill="#FFDD51"></path>
            <path
              d="M437.48658,244.361965 L442.473191,383.957197 L553.094729,386.091018 L556.419137,240.55532 L437.48658,244.361965 Z"
              id="Shape" fill="#FFDD51"></path>
            <path
              d="M407.18953,135.657371 C407.18953,156.906486 390.073056,174.132326 368.958849,174.132326 C347.844642,174.132326 330.728168,156.906486 330.728168,135.657371 C330.728168,114.408256 347.844642,97.1824161 368.958849,97.1824161 C390.073056,97.1824161 407.18953,114.408256 407.18953,135.657371 L407.18953,135.657371 Z"
              id="Shape" fill="#FFDD51"></path>
            <path
              d="M207.356398,640.360285 L206.118788,745.748204 L289.834205,745.748204 L293.583205,640.360285 L207.356398,640.360285 Z"
              id="Shape" fill="#FFF6D1"></path>
            <path
              d="M120.921815,315.832405 L119.259612,275.684627 L363.603529,41.48925 L638.840794,266.340599 L641.191516,300.287018"
              id="Shape"></path>
            <path
              d="M14.5407901,565.083199 L16.2029937,590.175561 L714.328471,586.829913 L712.666267,553.37343 L14.5407901,565.083199 Z"
              id="Shape" fill="#EFB24B"></path>
            <path
              d="M0.989576242,560.616692 L111.808784,480.873066 L639.03966,480.873066 L732.966825,554.110912 L0.989576242,560.616692 Z"
              id="Shape" fill="#8B572A"></path>
            <path
              d="M203.422062,393.533212 L205.664707,418.434638 L335.715444,417.396717 L337.958055,393.499254 L203.422062,393.533212 Z"
              id="Shape" fill="#8B572A"></path>
            <path
              d="M432.806147,385.169092 L433.386589,413.129142 L565.099529,410.705421 L567.342141,386.807957 L432.806147,385.169092 Z"
              id="Shape" fill="#8B572A"></path>
            <path
              d="M401.224281,761.554518 L406.166211,785.476004 L623.414914,782.072375 L627.181467,758.174912 L401.224281,761.554518 Z"
              id="Shape" fill="#8B572A"></path>
          </g>
        </g>
      </g>
    </g>
  </g>
</svg>
